<mxfile host="app.diagrams.net" modified="2021-05-23T05:54:00.944Z" agent="5.0 (Windows NT 10.0; Win64; x64) AppleWebKit/537.36 (KHTML, like Gecko) Chrome/90.0.4430.212 Safari/537.36 Edg/90.0.818.66" etag="E4nzx-158J2rU1_wR8sw" version="14.7.0" type="github">
  <diagram id="C5RBs43oDa-KdzZeNtuy" name="Page-1">
    <mxGraphModel dx="1422" dy="794" grid="1" gridSize="10" guides="1" tooltips="1" connect="1" arrows="1" fold="1" page="1" pageScale="1" pageWidth="827" pageHeight="1169" math="0" shadow="0">
      <root>
        <mxCell id="WIyWlLk6GJQsqaUBKTNV-0" />
        <mxCell id="WIyWlLk6GJQsqaUBKTNV-1" parent="WIyWlLk6GJQsqaUBKTNV-0" />
        <mxCell id="-KFwaDnrK1XaUl09X2iR-0" value="Start" style="rounded=1;whiteSpace=wrap;html=1;" parent="WIyWlLk6GJQsqaUBKTNV-1" vertex="1">
          <mxGeometry x="295" y="40" width="120" height="60" as="geometry" />
        </mxCell>
        <mxCell id="-KFwaDnrK1XaUl09X2iR-2" value="" style="endArrow=classic;html=1;exitX=0.5;exitY=1;exitDx=0;exitDy=0;" parent="WIyWlLk6GJQsqaUBKTNV-1" source="-KFwaDnrK1XaUl09X2iR-0" target="-KFwaDnrK1XaUl09X2iR-3" edge="1">
          <mxGeometry width="50" height="50" relative="1" as="geometry">
            <mxPoint x="340" y="390" as="sourcePoint" />
            <mxPoint x="230" y="160" as="targetPoint" />
          </mxGeometry>
        </mxCell>
        <mxCell id="-KFwaDnrK1XaUl09X2iR-3" value="x,i&lt;br&gt;usage[i]=0" style="shape=hexagon;perimeter=hexagonPerimeter2;whiteSpace=wrap;html=1;fixedSize=1;" parent="WIyWlLk6GJQsqaUBKTNV-1" vertex="1">
          <mxGeometry x="295" y="160" width="120" height="80" as="geometry" />
        </mxCell>
        <mxCell id="-KFwaDnrK1XaUl09X2iR-4" value="" style="endArrow=classic;html=1;exitX=0.5;exitY=1;exitDx=0;exitDy=0;entryX=0.5;entryY=0;entryDx=0;entryDy=0;" parent="WIyWlLk6GJQsqaUBKTNV-1" source="-KFwaDnrK1XaUl09X2iR-3" target="-KFwaDnrK1XaUl09X2iR-17" edge="1">
          <mxGeometry width="50" height="50" relative="1" as="geometry">
            <mxPoint x="340" y="380" as="sourcePoint" />
            <mxPoint x="230" y="270" as="targetPoint" />
          </mxGeometry>
        </mxCell>
        <mxCell id="-KFwaDnrK1XaUl09X2iR-17" value="for(i=0; i번째 줄이 비어있지 않음; i++)" style="swimlane;" parent="WIyWlLk6GJQsqaUBKTNV-1" vertex="1">
          <mxGeometry x="60" y="270" width="590" height="1140" as="geometry" />
        </mxCell>
        <mxCell id="-KFwaDnrK1XaUl09X2iR-20" value="" style="endArrow=classic;html=1;exitX=0.502;exitY=0.018;exitDx=0;exitDy=0;exitPerimeter=0;" parent="-KFwaDnrK1XaUl09X2iR-17" source="-KFwaDnrK1XaUl09X2iR-17" edge="1">
          <mxGeometry width="50" height="50" relative="1" as="geometry">
            <mxPoint x="140" y="70" as="sourcePoint" />
            <mxPoint x="171" y="80" as="targetPoint" />
          </mxGeometry>
        </mxCell>
        <mxCell id="-KFwaDnrK1XaUl09X2iR-5" value="index=0&lt;br&gt;Hamming Distance =0&lt;br&gt;w=0" style="shape=hexagon;perimeter=hexagonPerimeter2;whiteSpace=wrap;html=1;fixedSize=1;" parent="-KFwaDnrK1XaUl09X2iR-17" vertex="1">
          <mxGeometry x="100" y="80" width="140" height="60" as="geometry" />
        </mxCell>
        <mxCell id="-KFwaDnrK1XaUl09X2iR-6" value="" style="endArrow=classic;html=1;exitX=0.5;exitY=1;exitDx=0;exitDy=0;" parent="-KFwaDnrK1XaUl09X2iR-17" edge="1">
          <mxGeometry width="50" height="50" relative="1" as="geometry">
            <mxPoint x="170" y="260" as="sourcePoint" />
            <mxPoint x="170" y="290" as="targetPoint" />
          </mxGeometry>
        </mxCell>
        <mxCell id="-KFwaDnrK1XaUl09X2iR-7" value="같은 위치에서 &lt;br&gt;두 column의 숫자가 같은가?" style="rhombus;whiteSpace=wrap;html=1;" parent="-KFwaDnrK1XaUl09X2iR-17" vertex="1">
          <mxGeometry x="65" y="290" width="210" height="100" as="geometry" />
        </mxCell>
        <mxCell id="-KFwaDnrK1XaUl09X2iR-8" value="" style="endArrow=classic;html=1;exitX=0.5;exitY=1;exitDx=0;exitDy=0;entryX=0;entryY=0.5;entryDx=0;entryDy=0;" parent="-KFwaDnrK1XaUl09X2iR-17" source="-KFwaDnrK1XaUl09X2iR-7" target="-KFwaDnrK1XaUl09X2iR-10" edge="1">
          <mxGeometry width="50" height="50" relative="1" as="geometry">
            <mxPoint x="330" y="350" as="sourcePoint" />
            <mxPoint x="170" y="440" as="targetPoint" />
            <Array as="points">
              <mxPoint x="170" y="420" />
            </Array>
          </mxGeometry>
        </mxCell>
        <mxCell id="-KFwaDnrK1XaUl09X2iR-9" value="YES" style="text;html=1;align=center;verticalAlign=middle;resizable=0;points=[];autosize=1;strokeColor=none;" parent="-KFwaDnrK1XaUl09X2iR-17" vertex="1">
          <mxGeometry x="210" y="390" width="40" height="20" as="geometry" />
        </mxCell>
        <mxCell id="-KFwaDnrK1XaUl09X2iR-10" value="Hamming Distance를 세고, index=w로 놓는다" style="rounded=0;whiteSpace=wrap;html=1;" parent="-KFwaDnrK1XaUl09X2iR-17" vertex="1">
          <mxGeometry x="299" y="390" width="150" height="60" as="geometry" />
        </mxCell>
        <mxCell id="-KFwaDnrK1XaUl09X2iR-21" value="column의 w번째 행이&lt;br&gt;비어있는가?" style="rhombus;whiteSpace=wrap;html=1;" parent="-KFwaDnrK1XaUl09X2iR-17" vertex="1">
          <mxGeometry x="85" y="180" width="170" height="80" as="geometry" />
        </mxCell>
        <mxCell id="-KFwaDnrK1XaUl09X2iR-25" value="Hamming Distance가 1을 넘는가?" style="rhombus;whiteSpace=wrap;html=1;" parent="-KFwaDnrK1XaUl09X2iR-17" vertex="1">
          <mxGeometry x="40" y="470" width="260" height="80" as="geometry" />
        </mxCell>
        <mxCell id="-KFwaDnrK1XaUl09X2iR-24" value="Hamming Distance가 1인가?" style="rhombus;whiteSpace=wrap;html=1;" parent="-KFwaDnrK1XaUl09X2iR-17" vertex="1">
          <mxGeometry x="47.5" y="620" width="245" height="80" as="geometry" />
        </mxCell>
        <mxCell id="-KFwaDnrK1XaUl09X2iR-27" value="" style="endArrow=classic;html=1;exitX=0.5;exitY=1;exitDx=0;exitDy=0;entryX=0.5;entryY=0;entryDx=0;entryDy=0;" parent="-KFwaDnrK1XaUl09X2iR-17" source="-KFwaDnrK1XaUl09X2iR-7" target="-KFwaDnrK1XaUl09X2iR-25" edge="1">
          <mxGeometry width="50" height="50" relative="1" as="geometry">
            <mxPoint x="130" y="460" as="sourcePoint" />
            <mxPoint x="220" y="480" as="targetPoint" />
          </mxGeometry>
        </mxCell>
        <mxCell id="-KFwaDnrK1XaUl09X2iR-28" value="NO" style="text;html=1;align=center;verticalAlign=middle;resizable=0;points=[];autosize=1;strokeColor=none;" parent="-KFwaDnrK1XaUl09X2iR-17" vertex="1">
          <mxGeometry x="120" y="420" width="30" height="20" as="geometry" />
        </mxCell>
        <mxCell id="-KFwaDnrK1XaUl09X2iR-29" value="" style="endArrow=classic;html=1;entryX=1;entryY=0;entryDx=0;entryDy=0;exitX=0.5;exitY=1;exitDx=0;exitDy=0;" parent="-KFwaDnrK1XaUl09X2iR-17" source="-KFwaDnrK1XaUl09X2iR-10" target="-KFwaDnrK1XaUl09X2iR-25" edge="1">
          <mxGeometry width="50" height="50" relative="1" as="geometry">
            <mxPoint x="370" y="460" as="sourcePoint" />
            <mxPoint x="410" y="450" as="targetPoint" />
          </mxGeometry>
        </mxCell>
        <mxCell id="-KFwaDnrK1XaUl09X2iR-22" value="" style="endArrow=classic;html=1;exitX=0.5;exitY=1;exitDx=0;exitDy=0;entryX=0.5;entryY=0;entryDx=0;entryDy=0;" parent="-KFwaDnrK1XaUl09X2iR-17" source="-KFwaDnrK1XaUl09X2iR-5" target="-KFwaDnrK1XaUl09X2iR-21" edge="1">
          <mxGeometry width="50" height="50" relative="1" as="geometry">
            <mxPoint x="350" y="330" as="sourcePoint" />
            <mxPoint x="190" y="190" as="targetPoint" />
          </mxGeometry>
        </mxCell>
        <mxCell id="-KFwaDnrK1XaUl09X2iR-37" value="" style="endArrow=classic;html=1;exitX=0.5;exitY=1;exitDx=0;exitDy=0;" parent="-KFwaDnrK1XaUl09X2iR-17" source="-KFwaDnrK1XaUl09X2iR-25" target="-KFwaDnrK1XaUl09X2iR-24" edge="1">
          <mxGeometry width="50" height="50" relative="1" as="geometry">
            <mxPoint x="110" y="650" as="sourcePoint" />
            <mxPoint x="170" y="610" as="targetPoint" />
          </mxGeometry>
        </mxCell>
        <mxCell id="-KFwaDnrK1XaUl09X2iR-35" value="NO" style="text;html=1;align=center;verticalAlign=middle;resizable=0;points=[];autosize=1;strokeColor=none;" parent="-KFwaDnrK1XaUl09X2iR-17" vertex="1">
          <mxGeometry x="495" y="410" width="30" height="20" as="geometry" />
        </mxCell>
        <mxCell id="-KFwaDnrK1XaUl09X2iR-39" value="" style="endArrow=classic;html=1;exitX=0;exitY=0.5;exitDx=0;exitDy=0;entryX=0;entryY=0.5;entryDx=0;entryDy=0;" parent="-KFwaDnrK1XaUl09X2iR-17" source="-KFwaDnrK1XaUl09X2iR-21" target="-KFwaDnrK1XaUl09X2iR-24" edge="1">
          <mxGeometry width="50" height="50" relative="1" as="geometry">
            <mxPoint x="330" y="300" as="sourcePoint" />
            <mxPoint x="30" y="660" as="targetPoint" />
            <Array as="points">
              <mxPoint x="30" y="220" />
              <mxPoint x="30" y="660" />
            </Array>
          </mxGeometry>
        </mxCell>
        <mxCell id="-KFwaDnrK1XaUl09X2iR-47" value="YES" style="text;html=1;align=center;verticalAlign=middle;resizable=0;points=[];autosize=1;strokeColor=none;" parent="-KFwaDnrK1XaUl09X2iR-17" vertex="1">
          <mxGeometry x="180" y="710" width="40" height="20" as="geometry" />
        </mxCell>
        <mxCell id="-KFwaDnrK1XaUl09X2iR-48" value="column의 (index+1)번째 숫자를 &#39;-&#39;로 바꾼 것이&lt;br&gt;다음 Column에 이미 존재하는가?" style="rhombus;whiteSpace=wrap;html=1;" parent="-KFwaDnrK1XaUl09X2iR-17" vertex="1">
          <mxGeometry x="10" y="750" width="320" height="100" as="geometry" />
        </mxCell>
        <mxCell id="-KFwaDnrK1XaUl09X2iR-49" value="column의 (index+1)번째 숫자를 &#39;-&#39;로 바꾼다" style="rounded=0;whiteSpace=wrap;html=1;" parent="-KFwaDnrK1XaUl09X2iR-17" vertex="1">
          <mxGeometry x="47.5" y="920" width="252.5" height="60" as="geometry" />
        </mxCell>
        <mxCell id="-KFwaDnrK1XaUl09X2iR-50" value="" style="endArrow=classic;html=1;exitX=0.5;exitY=1;exitDx=0;exitDy=0;entryX=0.5;entryY=0;entryDx=0;entryDy=0;" parent="-KFwaDnrK1XaUl09X2iR-17" source="-KFwaDnrK1XaUl09X2iR-48" target="-KFwaDnrK1XaUl09X2iR-49" edge="1">
          <mxGeometry width="50" height="50" relative="1" as="geometry">
            <mxPoint x="190" y="990" as="sourcePoint" />
            <mxPoint x="220" y="1050" as="targetPoint" />
          </mxGeometry>
        </mxCell>
        <mxCell id="-KFwaDnrK1XaUl09X2iR-52" value="" style="endArrow=classic;html=1;entryX=0.882;entryY=0;entryDx=0;entryDy=0;entryPerimeter=0;" parent="-KFwaDnrK1XaUl09X2iR-17" target="-KFwaDnrK1XaUl09X2iR-56" edge="1">
          <mxGeometry relative="1" as="geometry">
            <mxPoint x="170" y="880" as="sourcePoint" />
            <mxPoint x="340" y="1020" as="targetPoint" />
            <Array as="points">
              <mxPoint x="330" y="880" />
            </Array>
          </mxGeometry>
        </mxCell>
        <mxCell id="-KFwaDnrK1XaUl09X2iR-55" value="" style="endArrow=classic;html=1;exitX=0.5;exitY=1;exitDx=0;exitDy=0;" parent="-KFwaDnrK1XaUl09X2iR-17" source="-KFwaDnrK1XaUl09X2iR-49" edge="1">
          <mxGeometry width="50" height="50" relative="1" as="geometry">
            <mxPoint x="150" y="1060" as="sourcePoint" />
            <mxPoint x="180" y="1030" as="targetPoint" />
          </mxGeometry>
        </mxCell>
        <mxCell id="-KFwaDnrK1XaUl09X2iR-56" value="비교한 두 열의 usage를 센다" style="rounded=0;whiteSpace=wrap;html=1;" parent="-KFwaDnrK1XaUl09X2iR-17" vertex="1">
          <mxGeometry x="40" y="1030" width="340" height="60" as="geometry" />
        </mxCell>
        <mxCell id="-KFwaDnrK1XaUl09X2iR-57" value="" style="endArrow=classic;html=1;exitX=0.5;exitY=1;exitDx=0;exitDy=0;" parent="-KFwaDnrK1XaUl09X2iR-17" source="-KFwaDnrK1XaUl09X2iR-56" edge="1">
          <mxGeometry width="50" height="50" relative="1" as="geometry">
            <mxPoint x="190" y="1160" as="sourcePoint" />
            <mxPoint x="210" y="1140" as="targetPoint" />
          </mxGeometry>
        </mxCell>
        <mxCell id="-KFwaDnrK1XaUl09X2iR-23" value="NO" style="text;html=1;align=center;verticalAlign=middle;resizable=0;points=[];autosize=1;strokeColor=none;" parent="WIyWlLk6GJQsqaUBKTNV-1" vertex="1">
          <mxGeometry x="175" y="530" width="30" height="20" as="geometry" />
        </mxCell>
        <mxCell id="-KFwaDnrK1XaUl09X2iR-34" value="" style="endArrow=classic;html=1;exitX=1;exitY=0.5;exitDx=0;exitDy=0;" parent="WIyWlLk6GJQsqaUBKTNV-1" source="-KFwaDnrK1XaUl09X2iR-25" edge="1">
          <mxGeometry width="50" height="50" relative="1" as="geometry">
            <mxPoint x="344" y="770" as="sourcePoint" />
            <mxPoint x="314" y="600" as="targetPoint" />
            <Array as="points">
              <mxPoint x="520" y="780" />
              <mxPoint x="550" y="780" />
              <mxPoint x="550" y="600" />
            </Array>
          </mxGeometry>
        </mxCell>
        <mxCell id="-KFwaDnrK1XaUl09X2iR-38" value="YES" style="text;html=1;align=center;verticalAlign=middle;resizable=0;points=[];autosize=1;strokeColor=none;" parent="WIyWlLk6GJQsqaUBKTNV-1" vertex="1">
          <mxGeometry x="160" y="820" width="40" height="20" as="geometry" />
        </mxCell>
        <mxCell id="-KFwaDnrK1XaUl09X2iR-40" value="YES" style="text;html=1;align=center;verticalAlign=middle;resizable=0;points=[];autosize=1;strokeColor=none;" parent="WIyWlLk6GJQsqaUBKTNV-1" vertex="1">
          <mxGeometry x="100" y="660" width="40" height="20" as="geometry" />
        </mxCell>
        <mxCell id="-KFwaDnrK1XaUl09X2iR-44" value="" style="endArrow=classic;html=1;exitX=1;exitY=0.5;exitDx=0;exitDy=0;" parent="WIyWlLk6GJQsqaUBKTNV-1" source="-KFwaDnrK1XaUl09X2iR-24" edge="1">
          <mxGeometry width="50" height="50" relative="1" as="geometry">
            <mxPoint x="390" y="1060" as="sourcePoint" />
            <mxPoint x="500" y="1410" as="targetPoint" />
            <Array as="points">
              <mxPoint x="500" y="930" />
            </Array>
          </mxGeometry>
        </mxCell>
        <mxCell id="-KFwaDnrK1XaUl09X2iR-45" value="NO" style="text;html=1;align=center;verticalAlign=middle;resizable=0;points=[];autosize=1;strokeColor=none;" parent="WIyWlLk6GJQsqaUBKTNV-1" vertex="1">
          <mxGeometry x="515" y="1110" width="30" height="20" as="geometry" />
        </mxCell>
        <mxCell id="-KFwaDnrK1XaUl09X2iR-46" value="" style="endArrow=classic;html=1;exitX=0.5;exitY=1;exitDx=0;exitDy=0;" parent="WIyWlLk6GJQsqaUBKTNV-1" source="-KFwaDnrK1XaUl09X2iR-24" edge="1">
          <mxGeometry width="50" height="50" relative="1" as="geometry">
            <mxPoint x="390" y="1060" as="sourcePoint" />
            <mxPoint x="230" y="1020" as="targetPoint" />
          </mxGeometry>
        </mxCell>
        <mxCell id="-KFwaDnrK1XaUl09X2iR-51" value="YES" style="text;html=1;align=center;verticalAlign=middle;resizable=0;points=[];autosize=1;strokeColor=none;" parent="WIyWlLk6GJQsqaUBKTNV-1" vertex="1">
          <mxGeometry x="175" y="1130" width="40" height="20" as="geometry" />
        </mxCell>
        <mxCell id="-KFwaDnrK1XaUl09X2iR-54" value="NO" style="text;html=1;align=center;verticalAlign=middle;resizable=0;points=[];autosize=1;strokeColor=none;" parent="WIyWlLk6GJQsqaUBKTNV-1" vertex="1">
          <mxGeometry x="405" y="1210" width="30" height="20" as="geometry" />
        </mxCell>
        <mxCell id="-KFwaDnrK1XaUl09X2iR-58" value="" style="endArrow=classic;html=1;exitX=0.5;exitY=1;exitDx=0;exitDy=0;" parent="WIyWlLk6GJQsqaUBKTNV-1" source="-KFwaDnrK1XaUl09X2iR-17" edge="1">
          <mxGeometry width="50" height="50" relative="1" as="geometry">
            <mxPoint x="320" y="1520" as="sourcePoint" />
            <mxPoint x="360" y="1470" as="targetPoint" />
          </mxGeometry>
        </mxCell>
        <mxCell id="-KFwaDnrK1XaUl09X2iR-59" value="End" style="rounded=1;whiteSpace=wrap;html=1;" parent="WIyWlLk6GJQsqaUBKTNV-1" vertex="1">
          <mxGeometry x="300" y="1470" width="120" height="60" as="geometry" />
        </mxCell>
      </root>
    </mxGraphModel>
  </diagram>
</mxfile>
